<svg width="120" height="120" viewBox="0 0 120 120" fill="none" xmlns="http://www.w3.org/2000/svg">
<path d="M35 103.08C29.43 103.08 24.705 101.139 20.825 97.2552C16.9417 93.3719 15 88.6469 15 83.0802C15 77.5069 16.9417 72.7802 20.825 68.9002C24.705 65.0202 29.43 63.0802 35 63.0802C40.57 63.0802 45.2967 65.0202 49.18 68.9002C53.0633 72.7802 55.0033 77.5069 55 83.0802C55 88.6469 53.06 93.3719 49.18 97.2552C45.2933 101.139 40.5667 103.08 35 103.08ZM102.23 100.77L70.81 69.3452C69.91 70.1152 68.835 70.8535 67.585 71.5602C66.335 72.2669 65.1667 72.8119 64.08 73.1952C63.72 72.4952 63.33 71.8069 62.91 71.1302C62.49 70.4535 62.0583 69.8402 61.615 69.2902C65.8083 67.5469 69.28 64.7685 72.03 60.9552C74.78 57.1419 76.1533 52.6569 76.15 47.5002C76.15 40.9302 73.85 35.3452 69.25 30.7452C64.65 26.1452 59.0667 23.8452 52.5 23.8452C45.9333 23.8452 40.3483 26.1469 35.745 30.7502C31.1417 35.3535 28.8417 40.9369 28.845 47.5002C28.845 48.5135 28.93 49.5385 29.1 50.5752C29.27 51.6085 29.4617 52.5985 29.675 53.5452C28.9417 53.5852 28.1283 53.7435 27.235 54.0202C26.3417 54.2969 25.54 54.5752 24.83 54.8552C24.5333 53.8119 24.295 52.6552 24.115 51.3852C23.935 50.1152 23.845 48.8202 23.845 47.5002C23.845 39.5069 26.6233 32.7335 32.18 27.1802C37.7333 21.6235 44.5067 18.8452 52.5 18.8452C60.4933 18.8452 67.2683 21.6235 72.825 27.1802C78.3817 32.7369 81.1567 39.5102 81.15 47.5002C81.15 51.0835 80.5233 54.4635 79.27 57.6402C78.0167 60.8169 76.4217 63.5785 74.485 65.9252L105.765 97.2302L102.23 100.77ZM26.22 94.5852L35 85.8052L43.75 94.5852L46.51 91.8552L37.73 83.0802L46.51 74.3002L43.78 71.5702L35 80.3452L26.22 71.5702L23.49 74.2952L32.27 83.0752L23.49 91.8552L26.22 94.5852Z" fill="#6E6E6E"/>
</svg>
